<svg xmlns="http://www.w3.org/2000/svg" width="1280" height="800" viewBox="0 0 1280 800" role="img" aria-labelledby="title desc">
  <title id="title">Pachi EV Analyzer expected value calculator screenshot preview</title>
  <desc id="desc">Expected value calculator preview with input fields and expected value rank.</desc>
  <rect width="1280" height="800" fill="#f7f8f5"/>
  <rect x="96" y="70" width="1088" height="660" rx="18" fill="#ffffff" stroke="#d9dfd7"/>
  <text x="142" y="132" font-family="Arial, sans-serif" font-size="34" font-weight="900" fill="#17211d">Expected Value Calculator</text>
  <g fill="#ffffff" stroke="#d9dfd7">
    <rect x="142" y="180" width="300" height="76" rx="8"/>
    <rect x="490" y="180" width="300" height="76" rx="8"/>
    <rect x="838" y="180" width="300" height="76" rx="8"/>
    <rect x="142" y="286" width="300" height="76" rx="8"/>
    <rect x="490" y="286" width="300" height="76" rx="8"/>
    <rect x="838" y="286" width="300" height="76" rx="8"/>
  </g>
  <g font-family="Arial, sans-serif" font-size="17" font-weight="700" fill="#69746f">
    <text x="166" y="210">Jackpot Probability</text>
    <text x="166" y="235">1/399</text>
    <text x="514" y="210">Rotation per 1k</text>
    <text x="514" y="235">18</text>
    <text x="862" y="210">Border Rotation</text>
    <text x="862" y="235">17</text>
    <text x="166" y="316">Average Payout</text>
    <text x="166" y="341">4,500</text>
    <text x="514" y="316">Exchange Rate</text>
    <text x="514" y="341">3.57</text>
    <text x="862" y="316">Machine</text>
    <text x="862" y="341">Demo Machine</text>
  </g>
  <g transform="translate(142 430)">
    <rect width="186" height="116" rx="10" fill="#eef7f4" stroke="#9accc3"/>
    <text x="20" y="40" font-family="Arial, sans-serif" font-size="16" font-weight="700" fill="#69746f">Border Diff</text>
    <text x="20" y="82" font-family="Arial, sans-serif" font-size="30" font-weight="900" fill="#115e59">+1.0</text>
  </g>
  <g transform="translate(356 430)">
    <rect width="186" height="116" rx="10" fill="#eef7f4" stroke="#9accc3"/>
    <text x="20" y="40" font-family="Arial, sans-serif" font-size="16" font-weight="700" fill="#69746f">EV per 1k</text>
    <text x="20" y="82" font-family="Arial, sans-serif" font-size="30" font-weight="900" fill="#115e59">+945円</text>
  </g>
  <g transform="translate(570 430)">
    <rect width="186" height="116" rx="10" fill="#eef7f4" stroke="#9accc3"/>
    <text x="20" y="40" font-family="Arial, sans-serif" font-size="16" font-weight="700" fill="#69746f">EV per 1000</text>
    <text x="20" y="82" font-family="Arial, sans-serif" font-size="30" font-weight="900" fill="#115e59">+52,500円</text>
  </g>
  <g transform="translate(784 430)">
    <rect width="186" height="116" rx="10" fill="#ffffff" stroke="#d9dfd7"/>
    <text x="20" y="40" font-family="Arial, sans-serif" font-size="16" font-weight="700" fill="#69746f">EV Rank</text>
    <text x="20" y="82" font-family="Arial, sans-serif" font-size="30" font-weight="900" fill="#17211d">A</text>
  </g>
  <rect x="142" y="596" width="996" height="78" rx="10" fill="#e9f7f4" stroke="#9accc3"/>
  <text x="170" y="645" font-family="Arial, sans-serif" font-size="24" font-weight="900" fill="#115e59">Border exceeded. Advantage is small but positive.</text>
</svg>
